<?xml version="1.0" encoding="utf-8"?>
<!-- Generator: Adobe Illustrator 16.0.4, SVG Export Plug-In . SVG Version: 6.00 Build 0)  -->
<!DOCTYPE svg PUBLIC "-//W3C//DTD SVG 1.1//EN" "http://www.w3.org/Graphics/SVG/1.1/DTD/svg11.dtd">
<svg version="1.1" id="Layer_1" xmlns="http://www.w3.org/2000/svg" xmlns:xlink="http://www.w3.org/1999/xlink" x="0px" y="0px"
	 width="102px" height="26px" viewBox="0 0 102 26" enable-background="new 0 0 102 26" xml:space="preserve">
<g>
	<g>
		<path fill="#0098D8" d="M78.374,6.624H72.78c-0.382,0-0.707,0.278-0.767,0.656l-2.262,14.341c-0.045,0.282,0.173,0.539,0.46,0.539
			h2.87c0.267,0,0.496-0.194,0.536-0.459l0.642-4.064c0.061-0.38,0.387-0.658,0.768-0.658h1.769c3.686,0,5.812-1.782,6.368-5.315
			c0.25-1.546,0.01-2.76-0.716-3.61C81.654,7.118,80.245,6.624,78.374,6.624z M79.02,11.862c-0.306,2.007-1.839,2.007-3.321,2.007
			h-0.845l0.592-3.748c0.035-0.227,0.232-0.394,0.461-0.394h0.388c1.008,0,1.962,0,2.453,0.575
			C79.042,10.647,79.131,11.158,79.02,11.862z"/>
		<path fill="#242E7C" d="M38.483,6.624H32.89c-0.383,0-0.708,0.278-0.768,0.656l-2.262,14.341
			c-0.045,0.282,0.174,0.539,0.461,0.539h2.67c0.383,0,0.708-0.279,0.768-0.655l0.61-3.868c0.059-0.38,0.384-0.658,0.767-0.658h1.77
			c3.685,0,5.81-1.782,6.366-5.315c0.251-1.546,0.01-2.76-0.713-3.61C41.764,7.118,40.354,6.624,38.483,6.624z M39.128,11.862
			c-0.306,2.007-1.838,2.007-3.321,2.007h-0.844l0.592-3.748c0.035-0.227,0.231-0.394,0.46-0.394h0.387c1.009,0,1.962,0,2.454,0.575
			C39.151,10.647,39.239,11.158,39.128,11.862z"/>
		<path fill="#242E7C" d="M55.2,11.797h-2.678c-0.229,0-0.426,0.167-0.462,0.394l-0.116,0.749l-0.188-0.271
			c-0.58-0.843-1.873-1.124-3.163-1.124c-2.959,0-5.486,2.241-5.979,5.386c-0.256,1.569,0.108,3.07,0.998,4.114
			c0.816,0.963,1.983,1.363,3.373,1.363c2.385,0,3.708-1.534,3.708-1.534l-0.119,0.746c-0.045,0.282,0.174,0.539,0.459,0.539h2.412
			c0.383,0,0.709-0.279,0.769-0.655l1.447-9.169C55.704,12.054,55.485,11.797,55.2,11.797z M51.467,17.011
			c-0.259,1.529-1.474,2.558-3.023,2.558c-0.776,0-1.398-0.25-1.798-0.724c-0.395-0.469-0.544-1.137-0.418-1.882
			c0.241-1.516,1.475-2.576,3-2.576c0.76,0,1.378,0.252,1.786,0.729C51.424,15.599,51.585,16.27,51.467,17.011z"/>
		<path fill="#0098D8" d="M95.089,11.797h-2.676c-0.229,0-0.427,0.167-0.461,0.394l-0.118,0.749l-0.188-0.271
			c-0.579-0.843-1.872-1.124-3.162-1.124c-2.96,0-5.487,2.241-5.979,5.386c-0.257,1.569,0.107,3.07,0.996,4.114
			c0.816,0.963,1.985,1.363,3.372,1.363c2.386,0,3.708-1.534,3.708-1.534l-0.118,0.746c-0.045,0.282,0.174,0.539,0.459,0.539h2.413
			c0.382,0,0.708-0.279,0.767-0.655l1.448-9.169C95.595,12.054,95.377,11.797,95.089,11.797z M91.358,17.011
			c-0.259,1.529-1.473,2.558-3.022,2.558c-0.777,0-1.399-0.25-1.798-0.724c-0.397-0.469-0.546-1.137-0.421-1.882
			c0.241-1.516,1.476-2.576,3.001-2.576c0.761,0,1.378,0.252,1.786,0.729C91.315,15.599,91.477,16.27,91.358,17.011z"/>
		<path fill="#242E7C" d="M69.463,11.797h-2.691c-0.257,0-0.499,0.128-0.644,0.341l-3.713,5.469l-1.573-5.255
			c-0.099-0.329-0.401-0.555-0.745-0.555h-2.646c-0.319,0-0.544,0.315-0.442,0.616l2.966,8.701l-2.788,3.935
			c-0.219,0.309,0.002,0.735,0.381,0.735h2.688c0.255,0,0.494-0.125,0.639-0.335l8.952-12.919
			C70.062,12.221,69.84,11.797,69.463,11.797z"/>
		<path fill="#0098D8" d="M98.246,7.018l-2.294,14.604c-0.045,0.282,0.174,0.539,0.459,0.539h2.311c0.382,0,0.707-0.279,0.767-0.655
			l2.264-14.342c0.044-0.282-0.174-0.539-0.46-0.539h-2.585C98.479,6.624,98.283,6.792,98.246,7.018z"/>
	</g>
	<g>
		<path fill="#242E7C" d="M10.637,24.767L11.389,20l0.048-0.263c0.036-0.231,0.154-0.44,0.332-0.593
			c0.177-0.151,0.403-0.234,0.636-0.234h0.597c0.994,0,1.909-0.107,2.717-0.315c0.863-0.225,1.629-0.572,2.279-1.034
			c0.688-0.49,1.268-1.125,1.721-1.883c0.478-0.802,0.827-1.765,1.042-2.866c0.189-0.972,0.225-1.842,0.106-2.585
			c-0.127-0.787-0.43-1.458-0.901-1.995c-0.285-0.326-0.651-0.607-1.086-0.838l-0.01-0.005l-0.001-0.013
			c0.153-0.969,0.146-1.778-0.017-2.475c-0.165-0.698-0.498-1.326-1.019-1.92c-1.079-1.23-3.044-1.854-5.836-1.854h-7.67
			c-0.257,0-0.506,0.092-0.702,0.259C3.432,1.55,3.303,1.782,3.262,2.035L0.069,22.288c-0.029,0.185,0.024,0.373,0.146,0.515
			c0.122,0.143,0.299,0.224,0.485,0.224h4.759l-0.004,0.022l-0.327,2.072c-0.025,0.161,0.021,0.324,0.126,0.449
			c0.106,0.123,0.26,0.194,0.423,0.194h3.991c0.224,0,0.441-0.08,0.611-0.227c0.17-0.144,0.283-0.347,0.318-0.566L10.637,24.767z"/>
		<g>
			<path fill="#242E7C" d="M7.902,7.401c0.05-0.321,0.256-0.583,0.534-0.716C8.562,6.624,8.703,6.59,8.851,6.59h6.013
				c0.712,0,1.376,0.046,1.984,0.145c0.173,0.027,0.342,0.061,0.506,0.096c0.164,0.037,0.323,0.077,0.478,0.122
				C17.907,6.977,17.983,7,18.058,7.024c0.298,0.099,0.576,0.215,0.831,0.351c0.301-1.919-0.001-3.226-1.04-4.409
				c-1.144-1.303-3.209-1.861-5.851-1.861h-7.67c-0.541,0-1.001,0.393-1.084,0.926L0.049,22.285
				c-0.062,0.399,0.247,0.761,0.65,0.761h4.735l1.19-7.541L7.902,7.401z"/>
			<path fill="#0098D8" d="M18.889,7.375L18.889,7.375L18.889,7.375c-0.023,0.146-0.048,0.295-0.078,0.45
				c-1.011,5.193-4.473,6.989-8.893,6.989h-2.25c-0.54,0-0.997,0.393-1.081,0.926l0,0l0,0l-1.152,7.307l-0.327,2.072
				c-0.055,0.35,0.215,0.666,0.569,0.666h3.991c0.473,0,0.875-0.344,0.949-0.811l0.038-0.201l0.752-4.77l0.049-0.262
				c0.074-0.469,0.476-0.812,0.948-0.812h0.597c3.866,0,6.894-1.571,7.779-6.115c0.37-1.898,0.178-3.483-0.799-4.597
				C19.686,7.881,19.318,7.602,18.889,7.375z"/>
			<path fill="#24226A" d="M17.831,6.953c-0.154-0.045-0.313-0.085-0.478-0.122c-0.164-0.036-0.333-0.069-0.506-0.096
				C16.24,6.637,15.576,6.59,14.863,6.59H8.851c-0.148,0-0.288,0.034-0.415,0.094C8.159,6.817,7.953,7.08,7.902,7.401l-1.277,8.104
				l-0.038,0.234c0.084-0.533,0.541-0.926,1.081-0.926h2.25c4.42,0,7.881-1.795,8.893-6.989c0.03-0.154,0.055-0.303,0.078-0.45
				c-0.255-0.135-0.533-0.252-0.831-0.351C17.983,7,17.907,6.977,17.831,6.953z"/>
		</g>
	</g>
</g>
</svg>
